# xmcd
#
# Track frame offsets:
#	150
#	14728
#	32695
#	49164
#	64701
#	82685
#	97356
#	119289
#	133909
#	146305
#	163394
#	181278
#
# Disc length: 2678 seconds
# Revision: 0
# Processed by: cddbd v1.5.2PL0 Copyright (c) Steve Scherf et al.
# Submitted via: dBpowerAMP V12.0
#
DISCID=a90a740c
DTITLE=Noth Country - Won't be over you
DYEAR=1900
DGENRE=Country
TTITLE0=Heading Down The Highway
TTITLE1=Won't Be Over You
TTITLE2=Goodby Liza Jane
TTITLE3=Redwood Hill
TTITLE4=I'm Going Home
TTITLE5=Highway 40 Blues
TTITLE6=Shake a Tower
TTITLE7=I Aint Broke
TTITLE8=Ten Degrees And Getting Colder
TTITLE9=Great Stides
TTITLE10=Big Spike Hammer
TTITLE11=Can't Let You Go
EXTD=
EXTT0=
EXTT1=
EXTT2=
EXTT3=
EXTT4=
EXTT5=
EXTT6=
EXTT7=
EXTT8=
EXTT9=
EXTT10=
EXTT11=
PLAYORDER=
